HIERARCHY
ROOT hip
{
	OFFSET 0.000000 0.000000 0.000000 
	CHANNELS 6 Xposition Yposition Zposition Xrotation Zrotation Yrotation
	JOINT abdomen
	{
		OFFSET 0.000000 3.402643 0.000000 
		CHANNELS 3 Xrotation Zrotation Yrotation
		JOINT chest
		{
			OFFSET 0.000000 8.438565 -0.680529 
			CHANNELS 3 Xrotation Zrotation Yrotation
			JOINT neck
			{
				OFFSET 0.000000 10.207942 -0.272212 
				CHANNELS 3 Xrotation Zrotation Yrotation
				JOINT head
				{
					OFFSET 0.000000 3.130431 0.000000 
					CHANNELS 3 Xrotation Zrotation Yrotation
					End Site
					{
						OFFSET 0.000000 3.130435 0.000000 
					}
				}
			}
			JOINT lCollar
			{
				OFFSET 3.470700 6.669187 -0.816635 
				CHANNELS 3 Yrotation Zrotation Xrotation
				JOINT lShldr
				{
					OFFSET 3.198488 0.000000 0.000000 
					CHANNELS 3 Zrotation Yrotation Xrotation
					JOINT lForeArm
					{
						OFFSET 10.139888 0.000000 0.000000 
						CHANNELS 3 Yrotation Zrotation Xrotation
						JOINT lHand
						{
							OFFSET 8.370511 0.000000 0.000000 
							CHANNELS 3 Zrotation Yrotation Xrotation
							End Site
							{
								OFFSET 4.083176 0.000000 0.000000 
							}
						}
					}
				}
			}
			JOINT rCollar
			{
				OFFSET -3.470700 6.669187 -0.816635 
				CHANNELS 3 Yrotation Zrotation Xrotation
				JOINT rShldr
				{
					OFFSET -3.198488 0.000000 0.000000 
					CHANNELS 3 Zrotation Yrotation Xrotation
					JOINT rForeArm
					{
						OFFSET -10.139888 0.000000 0.000000 
						CHANNELS 3 Yrotation Zrotation Xrotation
						JOINT rHand
						{
							OFFSET -8.370511 0.000000 0.000000 
							CHANNELS 3 Zrotation Yrotation Xrotation
							End Site
							{
								OFFSET -4.083176 0.000000 0.000000 
							}
						}
					}
				}
			}
		}
	}
	JOINT lThigh
	{
		OFFSET 5.308129 -1.633274 1.361059 
		CHANNELS 3 Xrotation Zrotation Yrotation
		JOINT lShin
		{
			OFFSET -2.041588 -20.007561 0.000000 
			CHANNELS 3 Xrotation Zrotation Yrotation
			JOINT lFoot
			{
				OFFSET 0.000000 -19.190928 -1.224953 
				CHANNELS 3 Xrotation Yrotation Zrotation
				End Site
				{
					OFFSET 0.000000 -2.449906 4.627600 
				}
			}
		}
	}
	JOINT rThigh
	{
		OFFSET -5.308129 -1.633274 1.361059 
		CHANNELS 3 Xrotation Zrotation Yrotation
		JOINT rShin
		{
			OFFSET 2.041588 -20.007561 0.000000 
			CHANNELS 3 Xrotation Zrotation Yrotation
			JOINT rFoot
			{
				OFFSET 0.000000 -19.190928 -1.224953 
				CHANNELS 3 Xrotation Yrotation Zrotation
				End Site
				{
					OFFSET 0.000000 -2.449906 4.627600 
				}
			}
		}
	}
}
MOTION
Frames: 6
Frame Time: 0.033333
13.443491 52.347115 -2.657468 -3.183594 5.791016 -130.224609 23.991854 -2.696367 -7.455153 -11.503737 -9.215075 -6.567000 51.562500 8.076172 2.618559 -83.867188 -9.218750 -4.375000 10.072713 -12.782129 8.971412 9.917740 36.633633 25.564560 -93.298759 0.090721 -2.654210 27.191761 4.235663 -2.360612 -14.068267 12.633108 24.376835 -40.171047 16.959696 -97.815125 86.966660 -0.462412 -2.727153 -25.830032 -69.439957 11.778019 -15.985259 24.079645 8.935479 24.536707 -5.190303 -2.809151 13.045944 1.873691 -6.453198 -11.834696 -6.980904 -20.269751 23.660515 5.009349 2.494907 -1.869978 -0.787439 13.081967 
13.962419 52.347115 -3.125219 -2.832031 5.966796 -127.206017 24.752012 -3.535330 -7.155414 -11.310227 -9.553385 -6.461426 51.562500 8.076172 2.618559 -85.205078 -9.560547 1.474609 9.892885 -12.290731 8.765275 10.538765 35.961708 24.804371 -93.121010 -0.013410 -2.742042 27.112213 4.502701 -2.302807 -14.601657 13.427205 24.571608 -38.880333 15.293029 -97.549736 86.100731 -0.644494 -2.797153 -26.614597 -70.023254 12.203162 -17.460926 24.901985 8.737900 23.841473 -5.316555 -2.763800 13.738426 3.161641 -8.392305 -10.611861 -6.557054 -24.532827 23.131550 5.038340 2.261342 -2.616474 0.215725 11.659891 
14.533334 52.220589 -3.615247 -2.480469 6.142579 -123.847656 25.678776 -4.131073 -6.985478 -11.116564 -9.891654 -6.210976 51.562500 8.076172 2.618559 -86.318359 -9.628906 6.611329 9.900499 -12.464001 8.799973 9.648538 35.762646 22.494284 -92.068329 0.103862 -2.702927 28.075188 5.148025 -2.382309 -15.105510 14.477530 24.602987 -37.441727 12.662664 -97.649574 85.573456 -0.654246 -2.827574 -24.937449 -70.406593 9.617396 -18.474981 25.387568 10.560922 23.306170 -5.244462 -2.693774 12.515091 3.214935 -8.007340 -9.920705 -6.013353 -29.152313 23.131548 5.038344 2.261343 -4.539587 0.559327 10.634086 
15.180169 51.999168 -4.078416 -1.953125 6.142578 -120.273445 26.796299 -4.932487 -6.758073 -10.758467 -10.060725 -5.951336 51.562500 8.076172 2.618559 -87.119141 -9.150390 10.750401 9.919582 -12.985571 8.889357 8.360859 35.164600 19.282818 -90.473709 -0.032500 -2.576544 28.633213 6.076700 -2.809787 -15.360785 15.386427 24.600336 -35.839787 10.998932 -98.160614 85.397705 -0.657494 -2.837733 -23.607153 -70.890091 8.329480 -18.993025 26.052004 13.457726 22.600937 -5.351777 -2.652382 10.983287 3.212673 -7.077215 -9.637618 -5.524761 -33.209492 23.660515 5.009346 2.494907 -6.321034 0.523799 9.839122 
15.877293 51.690754 -4.498599 -1.591797 6.318359 -116.542969 28.112314 -5.761957 -6.420408 -10.567965 -10.223131 -5.660127 51.562500 8.076172 2.618559 -87.353516 -8.515625 14.423828 9.858663 -13.539148 8.730522 7.102417 34.507004 16.084215 -88.725967 0.000000 -2.812511 29.709784 6.771354 -3.011349 -15.373678 15.555924 24.650423 -34.266659 10.792453 -99.352066 85.212364 -0.670686 -2.662378 -21.851324 -71.702339 7.775142 -19.891298 26.578594 16.014900 22.425787 -5.287391 -2.586656 8.627723 2.617054 -5.991930 -9.607537 -5.160890 -36.337200 24.728323 5.227462 1.968639 -9.135259 0.488968 9.887450 
16.732210 51.390251 -4.815251 -1.240234 6.494140 -112.646484 29.420637 -6.513890 -6.273170 -10.213391 -10.206480 -5.195355 51.562500 8.076172 2.618559 -87.265625 -8.095703 17.988279 9.971359 -14.081132 8.701883 5.279995 33.900833 12.142919 -86.790535 -0.081293 -2.815418 30.230888 8.132248 -3.719276 -15.214849 15.442637 24.491804 -32.570751 11.359237 -101.050369 85.205696 -0.309419 -2.769836 -22.264326 -72.231773 10.113754 -20.984861 26.763416 17.652542 22.435169 -5.287464 -2.606959 5.223963 2.701921 -6.210541 -10.585602 -5.047867 -39.792778 27.015722 5.116363 2.017268 -10.696211 -0.702716 9.399185 
